<?xml version="1.0" encoding="iso-8859-1"?>
<!-- Generator: Adobe Illustrator 16.0.0, SVG Export Plug-In . SVG Version: 6.00 Build 0)  -->
<!DOCTYPE svg PUBLIC "-//W3C//DTD SVG 1.1//EN" "http://www.w3.org/Graphics/SVG/1.1/DTD/svg11.dtd">
<svg version="1.1" id="Capa_1" xmlns="http://www.w3.org/2000/svg" xmlns:xlink="http://www.w3.org/1999/xlink" x="0px" y="0px"
	 width="29.998px" height="29.998px" viewBox="0 0 29.998 29.998" style="enable-background:new 0 0 29.998 29.998;"
	 xml:space="preserve">
<g>
	<g>
		<path d="M26.33,14.002l-1.835-0.597c0.042-0.366,0.07-0.736,0.07-1.113s-0.028-0.748-0.071-1.114l1.836-0.596
			c0.52-0.168,0.803-0.726,0.634-1.244L26.415,7.65c-0.168-0.519-0.725-0.802-1.244-0.634l-1.837,0.596
			c-0.366-0.65-0.81-1.25-1.312-1.794l1.14-1.569c0.32-0.441,0.224-1.059-0.219-1.379l-1.438-1.044
			c-0.439-0.32-1.059-0.223-1.379,0.218l-1.138,1.564C18.32,3.3,17.615,3.06,16.875,2.912V0.987C16.875,0.442,16.432,0,15.887,0
			h-1.775c-0.545,0-0.987,0.442-0.987,0.987v1.924c-0.742,0.147-1.448,0.387-2.118,0.696L9.871,2.044
			c-0.32-0.441-0.938-0.539-1.379-0.218L7.056,2.869c-0.441,0.32-0.539,0.938-0.219,1.379l1.138,1.567
			C7.471,6.36,7.028,6.96,6.661,7.611L4.828,7.015c-0.249-0.081-0.521-0.06-0.754,0.06C3.841,7.193,3.664,7.4,3.584,7.649
			L3.035,9.337c-0.168,0.519,0.115,1.075,0.634,1.244L5.5,11.177c-0.043,0.366-0.07,0.737-0.07,1.115s0.027,0.748,0.07,1.114
			l-1.832,0.595c-0.249,0.081-0.456,0.258-0.574,0.491c-0.119,0.233-0.141,0.504-0.06,0.753l0.55,1.688
			c0.168,0.519,0.725,0.802,1.243,0.634l1.834-0.595c0.367,0.65,0.811,1.25,1.313,1.795l-1.138,1.566
			c-0.154,0.212-0.218,0.477-0.177,0.734c0.041,0.259,0.184,0.489,0.396,0.646l1.438,1.043c0.44,0.32,1.058,0.225,1.378-0.218
			l0.362-0.499l-1.829,4.876H7.686c-0.545,0-0.987,0.441-0.987,0.986v1.108c0,0.547,0.442,0.988,0.987,0.988h14.625
			c0.545,0,0.985-0.441,0.985-0.986v-1.108c0-0.545-0.44-0.987-0.985-0.987h-0.722l-1.834-4.885l0.369,0.507
			c0.153,0.212,0.387,0.354,0.646,0.395c0.258,0.041,0.521-0.021,0.732-0.176l1.438-1.043c0.439-0.32,0.539-0.938,0.219-1.379
			l-1.14-1.568c0.503-0.545,0.944-1.146,1.312-1.795l1.837,0.597c0.249,0.082,0.521,0.061,0.754-0.06
			c0.233-0.119,0.41-0.326,0.49-0.574l0.549-1.688C27.132,14.728,26.847,14.17,26.33,14.002z M22.565,12.292
			c0,0.553-0.063,1.091-0.178,1.611l-4.962-1.612l4.961-1.612C22.5,11.199,22.565,11.738,22.565,12.292z M7.429,12.292
			c0-0.554,0.063-1.093,0.177-1.614l4.965,1.613l-4.965,1.613C7.493,13.384,7.429,12.846,7.429,12.292z M14.251,19.822
			c-1.111-0.109-2.148-0.465-3.066-1.004l3.066-4.22V19.822z M15.751,14.601l3.063,4.215c-0.917,0.536-1.953,0.895-3.063,1.004
			V14.601z M15.751,9.982V4.763c1.109,0.11,2.146,0.467,3.063,1.005L15.751,9.982z M20.024,6.651
			c0.805,0.718,1.458,1.602,1.896,2.602l-4.96,1.612L20.024,6.651z M14.251,9.985l-3.067-4.219c0.918-0.539,1.955-0.895,3.066-1.004
			L14.251,9.985L14.251,9.985z M13.035,10.865L8.071,9.253c0.441-1.001,1.095-1.885,1.9-2.604L13.035,10.865z M13.035,13.718
			l-3.063,4.218c-0.806-0.72-1.459-1.604-1.9-2.604L13.035,13.718z M20.025,17.932l-3.063-4.214l4.962,1.612
			C21.483,16.33,20.83,17.213,20.025,17.932z M11.609,26.917l1.517-4.042v0.721c0,0.545,0.442,0.987,0.987,0.987h1.775
			c0.545,0,0.987-0.442,0.987-0.987v-0.711l1.514,4.031L11.609,26.917L11.609,26.917z"/>
	</g>
</g>
<g>
</g>
<g>
</g>
<g>
</g>
<g>
</g>
<g>
</g>
<g>
</g>
<g>
</g>
<g>
</g>
<g>
</g>
<g>
</g>
<g>
</g>
<g>
</g>
<g>
</g>
<g>
</g>
<g>
</g>
</svg>
